<svg version="1.1" id="Layer_1" xmlns="http://www.w3.org/2000/svg" xmlns:xlink="http://www.w3.org/1999/xlink" x="0px" y="0px"
	 width="100%" viewBox="0 0 512 512" enable-background="new 0 0 512 512" xml:space="preserve">
<path fill="#78350F" opacity="1.000000" stroke="none" 
	d="
M225.000000,1.000000 
	C246.020889,1.000000 267.041779,1.000000 288.537628,1.404656 
	C289.686554,2.192100 290.320618,2.792309 291.040619,2.924595 
	C299.799011,4.533756 308.667664,5.661712 317.319336,7.710228 
	C342.437714,13.657670 366.021729,23.425390 388.265869,36.593887 
	C413.950439,51.799114 436.156952,71.103035 455.133667,93.929420 
	C469.865845,111.650223 481.956268,131.194382 491.273254,152.431061 
	C500.227234,172.840286 506.768677,193.868851 510.107178,215.915314 
	C510.577087,219.018417 512.011841,221.975388 513.000000,225.000000 
	C513.000000,246.020889 513.000000,267.041779 512.594910,288.534241 
	C511.807343,289.679260 511.164124,290.321747 511.079956,291.030640 
	C507.714142,319.373199 499.593079,346.412048 486.421021,371.587738 
	C478.573944,386.585815 468.709412,400.593323 459.050446,414.561096 
	C448.236877,430.198486 434.470398,443.332886 419.871796,455.310577 
	C402.094116,469.896576 382.666473,482.066284 361.455353,491.340057 
	C341.073334,500.251312 320.090790,506.799957 298.079041,510.107513 
	C294.977844,510.573547 292.022736,512.011780 289.000000,513.000000 
	C267.979095,513.000000 246.958206,513.000000 225.462219,512.595337 
	C224.313065,511.807831 223.678986,511.207397 222.958908,511.075104 
	C214.200577,509.466187 205.331772,508.339111 196.680344,506.290192 
	C171.562912,500.341553 147.978638,490.575439 125.735054,477.406738 
	C100.051315,462.201385 77.844543,442.898499 58.868366,420.072418 
	C44.136055,402.351227 32.045685,382.806274 22.727882,361.569641 
	C13.772987,341.160187 7.232423,320.130676 3.893129,298.083832 
	C3.423165,294.980988 1.988259,292.024323 0.999999,289.000000 
	C1.000000,267.979095 1.000000,246.958206 1.405121,225.466080 
	C2.192709,224.321350 2.835860,223.678833 2.920063,222.969910 
	C6.286519,194.627243 14.406495,167.587860 27.579784,142.412170 
	C35.427437,127.414413 45.290897,113.406479 54.949627,99.438629 
	C65.762901,83.801147 79.530075,70.667450 94.128090,58.689392 
	C111.905296,44.102718 131.333817,31.933891 152.544754,22.659718 
	C172.926956,13.747895 193.910080,7.199761 215.922180,3.892308 
	C219.022980,3.426395 221.977676,1.988171 225.000000,1.000000 
M111.029839,321.478607 
	C118.382759,350.149506 133.117584,374.420380 156.541489,392.445129 
	C205.152557,429.851379 258.991791,438.114471 316.628906,417.457397 
	C354.629913,403.837860 383.125305,378.895355 399.399658,341.315369 
	C410.988312,314.555298 412.756744,286.567200 408.362335,258.049866 
	C407.575226,252.941864 408.169434,249.099731 411.735352,244.899796 
	C423.744659,230.755280 430.096649,214.101715 430.790039,195.554947 
	C432.283173,155.616409 404.242889,119.101105 364.972443,110.037102 
	C344.889984,105.401871 325.616913,106.568085 308.643311,120.202660 
	C306.097046,122.248024 302.990692,123.717003 299.955811,125.013451 
	C281.163879,133.040985 261.487030,133.707535 241.580963,131.429077 
	C229.765915,130.076721 217.983749,127.545502 208.459549,120.093834 
	C192.906235,107.925087 175.414032,105.407829 156.972702,109.119133 
	C125.241531,115.504997 102.518600,133.928787 91.386223,164.370102 
	C80.524872,194.070328 86.369331,221.723816 106.427925,246.178757 
	C108.885002,249.174362 109.700195,251.912354 109.092606,255.702866 
	C105.606529,277.451324 105.500648,299.143127 111.029839,321.478607 
z"/>
<path fill="#000000" opacity="1.000000" stroke="none" 
	d="
M224.531342,1.000000 
	C221.977676,1.988171 219.022980,3.426395 215.922180,3.892308 
	C193.910080,7.199761 172.926956,13.747895 152.544754,22.659718 
	C131.333817,31.933891 111.905296,44.102718 94.128090,58.689392 
	C79.530075,70.667450 65.762901,83.801147 54.949627,99.438629 
	C45.290897,113.406479 35.427437,127.414413 27.579784,142.412170 
	C14.406495,167.587860 6.286519,194.627243 2.920063,222.969910 
	C2.835860,223.678833 2.192709,224.321350 1.405121,224.997421 
	C1.000000,150.406296 1.000000,75.812576 1.000000,1.000000 
	C75.354088,1.000000 149.708389,1.000000 224.531342,1.000000 
z"/>
<path fill="#000000" opacity="1.000000" stroke="none" 
	d="
M513.000000,224.531342 
	C512.011841,221.975388 510.577087,219.018417 510.107178,215.915314 
	C506.768677,193.868851 500.227234,172.840286 491.273254,152.431061 
	C481.956268,131.194382 469.865845,111.650223 455.133667,93.929420 
	C436.156952,71.103035 413.950439,51.799114 388.265869,36.593887 
	C366.021729,23.425390 342.437714,13.657670 317.319336,7.710228 
	C308.667664,5.661712 299.799011,4.533756 291.040619,2.924595 
	C290.320618,2.792309 289.686554,2.192100 289.006287,1.404656 
	C363.593719,1.000000 438.187408,1.000000 513.000000,1.000000 
	C513.000000,75.354088 513.000000,149.708389 513.000000,224.531342 
z"/>
<path fill="#000000" opacity="1.000000" stroke="none" 
	d="
M0.999999,289.468658 
	C1.988259,292.024323 3.423165,294.980988 3.893129,298.083832 
	C7.232423,320.130676 13.772987,341.160187 22.727882,361.569641 
	C32.045685,382.806274 44.136055,402.351227 58.868366,420.072418 
	C77.844543,442.898499 100.051315,462.201385 125.735054,477.406738 
	C147.978638,490.575439 171.562912,500.341553 196.680344,506.290192 
	C205.331772,508.339111 214.200577,509.466187 222.958908,511.075104 
	C223.678986,511.207397 224.313065,511.807831 224.993561,512.595337 
	C150.406296,513.000000 75.812599,513.000000 1.000000,513.000000 
	C1.000000,438.645905 1.000000,364.291626 0.999999,289.468658 
z"/>
<path fill="#000000" opacity="1.000000" stroke="none" 
	d="
M289.468658,513.000000 
	C292.022736,512.011780 294.977844,510.573547 298.079041,510.107513 
	C320.090790,506.799957 341.073334,500.251312 361.455353,491.340057 
	C382.666473,482.066284 402.094116,469.896576 419.871796,455.310577 
	C434.470398,443.332886 448.236877,430.198486 459.050446,414.561096 
	C468.709412,400.593323 478.573944,386.585815 486.421021,371.587738 
	C499.593079,346.412048 507.714142,319.373199 511.079956,291.030640 
	C511.164124,290.321747 511.807343,289.679260 512.594910,289.002899 
	C513.000000,363.593719 513.000000,438.187408 513.000000,513.000000 
	C438.645905,513.000000 364.291626,513.000000 289.468658,513.000000 
z"/>
<path fill="#FEFDFD" opacity="1.000000" stroke="none" 
	d="
M110.963730,321.070435 
	C105.500648,299.143127 105.606529,277.451324 109.092606,255.702866 
	C109.700195,251.912354 108.885002,249.174362 106.427925,246.178757 
	C86.369331,221.723816 80.524872,194.070328 91.386223,164.370102 
	C102.518600,133.928787 125.241531,115.504997 156.972702,109.119133 
	C175.414032,105.407829 192.906235,107.925087 208.459549,120.093834 
	C217.983749,127.545502 229.765915,130.076721 241.580963,131.429077 
	C261.487030,133.707535 281.163879,133.040985 299.955811,125.013451 
	C302.990692,123.717003 306.097046,122.248024 308.643311,120.202660 
	C325.616913,106.568085 344.889984,105.401871 364.972443,110.037102 
	C404.242889,119.101105 432.283173,155.616409 430.790039,195.554947 
	C430.096649,214.101715 423.744659,230.755280 411.735352,244.899796 
	C408.169434,249.099731 407.575226,252.941864 408.362335,258.049866 
	C412.756744,286.567200 410.988312,314.555298 399.399658,341.315369 
	C383.125305,378.895355 354.629913,403.837860 316.628906,417.457397 
	C258.991791,438.114471 205.152557,429.851379 156.541489,392.445129 
	C133.117584,374.420380 118.382759,350.149506 110.963730,321.070435 
M208.935608,144.553879 
	C197.877792,137.051804 185.882706,131.755493 172.415390,131.256836 
	C148.132614,130.357773 123.584457,147.146790 114.346718,170.387466 
	C105.112526,193.619202 111.312439,219.967026 130.380264,236.782562 
	C134.709961,240.600845 135.732742,244.292847 134.461609,249.876678 
	C131.051147,264.858124 129.617599,280.058929 130.881821,295.484467 
	C133.438324,326.677887 145.634888,353.355225 170.119354,372.929718 
	C211.123703,405.711304 257.200104,413.191650 306.749786,395.977753 
	C338.932098,384.797394 363.463226,364.320953 377.294312,332.508087 
	C389.048340,305.472656 388.892761,277.505188 382.574554,249.292496 
	C381.411469,244.098907 382.372711,240.696747 386.518066,237.115997 
	C399.204010,226.157959 406.226868,211.983841 406.833435,195.242737 
	C407.721405,170.733261 396.697815,152.357666 375.998779,139.742081 
	C354.188965,126.449509 332.301270,129.090698 311.976074,142.295944 
	C296.507935,152.345596 280.060455,156.840210 262.129761,157.246887 
	C243.590912,157.667358 225.581360,155.383026 208.935608,144.553879 
z"/>
<path fill="#793610" opacity="1.000000" stroke="none" 
	d="
M209.223343,144.774933 
	C225.581360,155.383026 243.590912,157.667358 262.129761,157.246887 
	C280.060455,156.840210 296.507935,152.345596 311.976074,142.295944 
	C332.301270,129.090698 354.188965,126.449509 375.998779,139.742081 
	C396.697815,152.357666 407.721405,170.733261 406.833435,195.242737 
	C406.226868,211.983841 399.204010,226.157959 386.518066,237.115997 
	C382.372711,240.696747 381.411469,244.098907 382.574554,249.292496 
	C388.892761,277.505188 389.048340,305.472656 377.294312,332.508087 
	C363.463226,364.320953 338.932098,384.797394 306.749786,395.977753 
	C257.200104,413.191650 211.123703,405.711304 170.119354,372.929718 
	C145.634888,353.355225 133.438324,326.677887 130.881821,295.484467 
	C129.617599,280.058929 131.051147,264.858124 134.461609,249.876678 
	C135.732742,244.292847 134.709961,240.600845 130.380264,236.782562 
	C111.312439,219.967026 105.112526,193.619202 114.346718,170.387466 
	C123.584457,147.146790 148.132614,130.357773 172.415390,131.256836 
	C185.882706,131.755493 197.877792,137.051804 209.223343,144.774933 
M325.479126,185.009094 
	C330.198334,188.402908 334.912933,191.803101 339.637848,195.188965 
	C345.984039,199.736633 352.307983,204.316315 358.695770,208.804962 
	C369.466156,216.373245 378.875671,212.058472 379.918701,198.996872 
	C381.020813,185.194580 376.491150,173.631683 364.895447,165.725571 
	C353.051575,157.650223 340.321075,157.370560 327.515808,163.532013 
	C316.992554,168.595459 316.071075,176.615555 325.479126,185.009094 
M161.236130,160.540421 
	C142.777328,165.759613 132.068329,182.500046 135.132599,201.345718 
	C136.743576,211.253433 145.103287,215.817017 153.363998,210.385742 
	C166.261719,201.905701 178.884781,192.940781 191.069046,183.467285 
	C198.697571,177.536011 197.089294,168.600906 188.575317,164.115402 
	C180.158737,159.681213 171.328857,158.409515 161.236130,160.540421 
M286.724487,297.378601 
	C282.333954,306.758820 284.915070,313.597260 293.467285,313.171997 
	C305.869568,312.555267 318.282990,311.075989 330.541534,309.054291 
	C338.154785,307.798737 340.152740,301.173889 335.853180,294.616547 
	C323.682434,276.054657 298.855499,277.107574 286.724487,297.378601 
M196.084610,283.327301 
	C189.233536,285.692566 183.856613,289.951202 180.129211,296.145691 
	C176.536438,302.116455 179.172546,308.788086 186.095367,309.807526 
	C198.236160,311.595428 210.460434,313.011627 222.699860,313.861938 
	C230.068878,314.373932 233.789017,308.510956 231.455231,301.487366 
	C226.644165,287.008423 212.337875,279.400116 196.084610,283.327301 
M249.088593,310.359528 
	C246.184341,311.536072 242.926788,312.239655 240.498642,314.053528 
	C238.848129,315.286499 237.240692,318.250519 237.536301,320.139648 
	C239.261581,331.164917 254.762482,340.458313 264.798859,335.815125 
	C269.880707,333.464111 274.288025,328.739380 277.809082,324.169983 
	C281.903015,318.857178 280.416351,315.263916 274.231415,312.503204 
	C266.412354,309.013092 258.247070,308.451447 249.088593,310.359528 
z"/>
<path fill="#FEFDFD" opacity="1.000000" stroke="none" 
	d="
M325.178406,184.811447 
	C316.071075,176.615555 316.992554,168.595459 327.515808,163.532013 
	C340.321075,157.370560 353.051575,157.650223 364.895447,165.725571 
	C376.491150,173.631683 381.020813,185.194580 379.918701,198.996872 
	C378.875671,212.058472 369.466156,216.373245 358.695770,208.804962 
	C352.307983,204.316315 345.984039,199.736633 339.637848,195.188965 
	C334.912933,191.803101 330.198334,188.402908 325.178406,184.811447 
z"/>
<path fill="#FEFDFD" opacity="1.000000" stroke="none" 
	d="
M161.629669,160.408615 
	C171.328857,158.409515 180.158737,159.681213 188.575317,164.115402 
	C197.089294,168.600906 198.697571,177.536011 191.069046,183.467285 
	C178.884781,192.940781 166.261719,201.905701 153.363998,210.385742 
	C145.103287,215.817017 136.743576,211.253433 135.132599,201.345718 
	C132.068329,182.500046 142.777328,165.759613 161.629669,160.408615 
z"/>
<path fill="#FDFDFC" opacity="1.000000" stroke="none" 
	d="
M286.870483,297.033142 
	C298.855499,277.107574 323.682434,276.054657 335.853180,294.616547 
	C340.152740,301.173889 338.154785,307.798737 330.541534,309.054291 
	C318.282990,311.075989 305.869568,312.555267 293.467285,313.171997 
	C284.915070,313.597260 282.333954,306.758820 286.870483,297.033142 
z"/>
<path fill="#FDFDFC" opacity="1.000000" stroke="none" 
	d="
M196.474915,283.209595 
	C212.337875,279.400116 226.644165,287.008423 231.455231,301.487366 
	C233.789017,308.510956 230.068878,314.373932 222.699860,313.861938 
	C210.460434,313.011627 198.236160,311.595428 186.095367,309.807526 
	C179.172546,308.788086 176.536438,302.116455 180.129211,296.145691 
	C183.856613,289.951202 189.233536,285.692566 196.474915,283.209595 
z"/>
<path fill="#FDFBFB" opacity="1.000000" stroke="none" 
	d="
M249.491272,310.251282 
	C258.247070,308.451447 266.412354,309.013092 274.231415,312.503204 
	C280.416351,315.263916 281.903015,318.857178 277.809082,324.169983 
	C274.288025,328.739380 269.880707,333.464111 264.798859,335.815125 
	C254.762482,340.458313 239.261581,331.164917 237.536301,320.139648 
	C237.240692,318.250519 238.848129,315.286499 240.498642,314.053528 
	C242.926788,312.239655 246.184341,311.536072 249.491272,310.251282 
z"/>
</svg>